<?xml version="1.0" encoding="utf-8"?>
<!-- Generator: Adobe Illustrator 16.0.0, SVG Export Plug-In . SVG Version: 6.00 Build 0)  -->
<!DOCTYPE svg PUBLIC "-//W3C//DTD SVG 1.1//EN" "http://www.w3.org/Graphics/SVG/1.1/DTD/svg11.dtd">
<svg version="1.1" id="Layer_1" xmlns="http://www.w3.org/2000/svg" xmlns:xlink="http://www.w3.org/1999/xlink" x="0px" y="0px"
	 width="1920px" height="969px" viewBox="0 0 1920 969" enable-background="new 0 0 1920 969" xml:space="preserve">
<path fill="#DCCDB9" d="M1918.667,968.848V404.363c-45.589-43.286-131.735-81.749-193.658-54.786
	c-32.806,14.284-48.991,45.479-40.156,80.281c10.479,41.278,43.977,57.826,77.165,78.371c57.057,35.32,102.809,99.68,99.638,169.576
	c-1.761,38.822-31.275,65.771-69.865,64.586c-79.772-2.449-130.254-10.732-209.844-16.645
	c-79.591-5.91-168.781,12.891-215.429,77.648c-14.082,19.549-23.68,42.506-40.765,59.492c-26.624,26.471-67.329,33.924-104.7,30.332
	c-37.371-3.594-130.653-35.342-167.053-44.537c-80.664-20.379-160-51-217.699-9.533c-95.077,68.328-195.577,114.463-312.05,102.537
	c-90.823-9.3-199.818-61.669-270.14,27.162H1918.667z"/>
</svg>
